<svg xmlns="http://www.w3.org/2000/svg" viewBox="0 0 170 90">
  <defs>
    <linearGradient id="pepperSkin" x1="0" y1="0" x2="1" y2="0">
      <stop offset="0%" stop-color="#bcff9b"/>
      <stop offset="50%" stop-color="#5ec15a"/>
      <stop offset="100%" stop-color="#287f2f"/>
    </linearGradient>
  </defs>
  <path d="M20 52c0-16 13-30 34-33 14-2 21 2 33 2 15 0 20-6 33-3 17 4 30 17 30 34 0 16-11 29-27 33-10 3-19-1-35-1-17 0-24 5-35 2-19-5-33-18-33-34z" fill="url(#pepperSkin)"/>
  <path d="M88 18c3-9 11-13 20-13-5 5-8 10-8 16" stroke="#4f9d47" stroke-width="6" stroke-linecap="round"/>
  <path d="M38 57c24 7 49 8 88 3" stroke="#2f7e34" stroke-width="3" opacity="0.4"/>
</svg>
