<svg xmlns="http://www.w3.org/2000/svg" viewBox="0 0 180 80">
  <defs>
    <linearGradient id="carrotBody" x1="0" y1="0" x2="1" y2="0">
      <stop offset="0%" stop-color="#ffc177"/>
      <stop offset="45%" stop-color="#ff8d2f"/>
      <stop offset="100%" stop-color="#d86612"/>
    </linearGradient>
  </defs>
  <path d="M16 40c0-9 9-15 24-15h92c15 0 24 6 24 15s-9 15-24 15H40c-15 0-24-6-24-15z" fill="url(#carrotBody)"/>
  <path d="M132 26c15-4 27-9 35-15-1 8-4 14-10 21" fill="#4f9a40"/>
  <path d="M132 54c15 4 27 9 35 15-1-8-4-14-10-21" fill="#64b154"/>
  <path d="M42 31h72M48 40h72M56 49h62" stroke="#c75b10" stroke-width="2" opacity="0.45"/>
</svg>
