<svg xmlns="http://www.w3.org/2000/svg" viewBox="0 0 160 110">
  <defs>
    <radialGradient id="leafCore" cx="35%" cy="30%" r="80%">
      <stop offset="0%" stop-color="#dcffb1"/>
      <stop offset="55%" stop-color="#8fd25a"/>
      <stop offset="100%" stop-color="#4e8e38"/>
    </radialGradient>
  </defs>
  <path d="M15 63c-8-21 7-45 33-53 26-8 62 1 86 19 20 16 16 46-7 62-24 17-66 23-92 8-10-6-17-17-20-36z" fill="url(#leafCore)"/>
  <path d="M30 68c18-16 46-23 92-22" stroke="#3f7730" stroke-width="5" stroke-linecap="round" opacity="0.55"/>
  <path d="M42 43c13 5 21 11 30 20M69 31c12 8 20 15 27 27M95 24c10 8 15 16 19 27" stroke="#f0ffd7" stroke-width="3" stroke-linecap="round" opacity="0.55"/>
</svg>
